<svg width="111" height="51" viewBox="0 0 111 51" fill="none" xmlns="http://www.w3.org/2000/svg">
<rect y="18.3077" width="32.6923" height="32.6923" fill="url(#paint0_linear_1_73)"/>
<path d="M15.0385 5.88461H43.8077L32.6923 18.3077H0L15.0385 5.88461Z" fill="url(#paint1_linear_1_73)"/>
<path d="M32.6923 18.3077L43.8076 5.88461V34L32.6923 51V18.3077Z" fill="url(#paint2_linear_1_73)"/>
<path d="M19.9721 11.7692H27.4616L25.7972 13.0769H18.3077L19.9721 11.7692Z" fill="#C5EEFF"/>
<path d="M56.0228 30H47.2404V7.17482H55.9336C58.2815 7.17482 60.3099 7.63177 62.0188 8.54567C63.7352 9.45214 65.0577 10.7598 65.9865 12.4688C66.9227 14.1702 67.3908 16.2098 67.3908 18.5874C67.3908 20.965 66.9264 23.0083 65.9977 24.7172C65.0689 26.4187 63.7538 27.7264 62.0523 28.6403C60.3508 29.5468 58.341 30 56.0228 30ZM53.4371 24.7395H55.7999C56.9293 24.7395 57.8914 24.5575 58.6865 24.1934C59.4889 23.8293 60.0982 23.2015 60.5143 22.3099C60.9378 21.4183 61.1495 20.1774 61.1495 18.5874C61.1495 16.9974 60.9341 15.7566 60.5031 14.8649C60.0796 13.9733 59.4555 13.3455 58.6307 12.9814C57.8134 12.6174 56.8104 12.4353 55.6216 12.4353H53.4371V24.7395ZM82.5621 14.3077C82.5026 13.5647 82.224 12.9851 81.7262 12.5691C81.2358 12.153 80.4891 11.9449 79.486 11.9449C78.847 11.9449 78.3232 12.0229 77.9146 12.179C77.5133 12.3276 77.2161 12.5319 77.0229 12.792C76.8298 13.052 76.7295 13.3492 76.722 13.6836C76.7072 13.9585 76.7555 14.2074 76.8669 14.4303C76.9858 14.6458 77.1715 14.8427 77.4242 15.021C77.6768 15.1919 78 15.3479 78.3938 15.4891C78.7876 15.6302 79.2557 15.7566 79.7981 15.868L81.6705 16.2692C82.9336 16.5367 84.0146 16.8896 84.9137 17.328C85.8127 17.7664 86.5483 18.2828 87.1204 18.8772C87.6925 19.4642 88.1123 20.1254 88.3798 20.861C88.6547 21.5966 88.7959 22.399 88.8033 23.2684C88.7959 24.7692 88.4207 26.0398 87.6777 27.08C86.9347 28.1202 85.8722 28.9115 84.4902 29.4539C83.1156 29.9963 81.4624 30.2675 79.5306 30.2675C77.5468 30.2675 75.8156 29.974 74.337 29.387C72.8658 28.8 71.7216 27.8973 70.9043 26.6788C70.0944 25.4528 69.6858 23.8851 69.6783 21.9755H75.5629C75.6001 22.674 75.7747 23.2609 76.0868 23.7365C76.3988 24.212 76.8372 24.5723 77.4019 24.8175C77.974 25.0627 78.6538 25.1853 79.4414 25.1853C80.1027 25.1853 80.6563 25.1036 81.1021 24.9401C81.5479 24.7767 81.8859 24.55 82.1163 24.2603C82.3466 23.9705 82.4655 23.6399 82.4729 23.2684C82.4655 22.9191 82.3503 22.6145 82.1274 22.3545C81.9119 22.087 81.5553 21.8492 81.0575 21.6412C80.5597 21.4257 79.8872 21.2251 79.0402 21.0393L76.7666 20.549C74.7456 20.1106 73.1519 19.3787 71.9854 18.3534C70.8263 17.3206 70.2504 15.9126 70.2579 14.1294C70.2504 12.6805 70.6368 11.4137 71.417 10.3289C72.2045 9.23667 73.2931 8.38593 74.6825 7.77666C76.0793 7.16739 77.6805 6.86276 79.486 6.86276C81.3287 6.86276 82.9224 7.17111 84.2673 7.78781C85.6121 8.4045 86.6486 9.27382 87.3767 10.3958C88.1123 11.5103 88.4838 12.8142 88.4913 14.3077H82.5621ZM91.1605 30V7.17482H101.057C102.796 7.17482 104.256 7.40887 105.437 7.87697C106.626 8.34506 107.522 9.00634 108.123 9.86079C108.733 10.7153 109.037 11.722 109.037 12.8811C109.037 13.7207 108.852 14.486 108.48 15.177C108.116 15.868 107.603 16.4476 106.942 16.9156C106.281 17.3763 105.508 17.6958 104.624 17.8741V18.097C105.605 18.1342 106.496 18.3831 107.299 18.8438C108.101 19.297 108.74 19.9248 109.216 20.7273C109.691 21.5223 109.929 22.4585 109.929 23.5358C109.929 24.7841 109.602 25.8949 108.948 26.8682C108.302 27.8416 107.38 28.6069 106.184 29.1641C104.988 29.7214 103.561 30 101.904 30H91.1605ZM97.3572 25.0516H100.255C101.295 25.0516 102.075 24.8584 102.595 24.472C103.115 24.0782 103.376 23.4987 103.376 22.7334C103.376 22.1984 103.253 21.7452 103.008 21.3737C102.763 21.0022 102.413 20.7198 101.96 20.5267C101.514 20.3335 100.976 20.2369 100.344 20.2369H97.3572V25.0516ZM97.3572 16.403H99.8983C100.441 16.403 100.92 16.3175 101.336 16.1466C101.752 15.9757 102.075 15.7306 102.306 15.4111C102.543 15.0841 102.662 14.6866 102.662 14.2185C102.662 13.5127 102.41 12.974 101.904 12.6025C101.399 12.2236 100.76 12.0341 99.9874 12.0341H97.3572V16.403Z" fill="url(#paint3_linear_1_73)"/>
<rect x="46" y="9" width="61" height="19" rx="9.5" fill="white" fill-opacity="0.2"/>
<defs>
<linearGradient id="paint0_linear_1_73" x1="16.3462" y1="18.3077" x2="16.3462" y2="51" gradientUnits="userSpaceOnUse">
<stop stop-color="#00628B"/>
<stop offset="1" stop-color="#001A25"/>
</linearGradient>
<linearGradient id="paint1_linear_1_73" x1="0" y1="12.0962" x2="43.8077" y2="12.0962" gradientUnits="userSpaceOnUse">
<stop stop-color="#015578"/>
<stop offset="1" stop-color="#029DDE"/>
</linearGradient>
<linearGradient id="paint2_linear_1_73" x1="38.25" y1="5.88461" x2="38.25" y2="51" gradientUnits="userSpaceOnUse">
<stop stop-color="#2FA0C6"/>
<stop offset="1" stop-color="#174E60"/>
</linearGradient>
<linearGradient id="paint3_linear_1_73" x1="78.2693" y1="0" x2="78.2693" y2="38" gradientUnits="userSpaceOnUse">
<stop/>
<stop offset="1" stop-color="#666666"/>
</linearGradient>
</defs>
</svg>
